{
  "extensionsUsed": [
    "KHR_materials_transmission",
    "KHR_materials_clearcoat",
    "KHR_materials_ior",
    "KHR_materials_specular",
    "KHR_materials_emissive_strength",
    "KHR_texture_transform"
  ],
  "accessors": [
    {
      "bufferView": 0,
      "componentType": 5126,
      "count": 11088,
      "type": "VEC3",
      "max": [
        4.7885127,
        11.5,
        4.8614345
      ],
      "min": [
        -4.8810453,
        0.0,
        -4.7615366
      ]
    },
    {
      "bufferView": 1,
      "componentType": 5125,
      "count": 65604,
      "type": "SCALAR",
      "max": [
        11087.0
      ],
      "min": [
        0.0
      ]
    },
    {
      "bufferView": 2,
      "componentType": 5126,
      "count": 11088,
      "type": "VEC3",
      "max": [
        0.9997089,
        0.7282642,
        0.9999536
      ],
      "min": [
        -0.99972695,
        -0.8269127,
        -0.9992641
      ]
    }
  ],
  "asset": {
    "version": "2.0"
  },
  "buffers": [
    {
      "uri": "data:application/octet-stream;base64,",
      "byteLength": 133056
    },
    {
      "uri": "data:application/octet-stream;base64,",
      "byteLength": 262416
    },
    {
      "uri": "data:application/octet-stream;base64,",
      "byteLength": 133056
    }
  ],
  "bufferViews": [
    {
      "buffer": 0,
      "byteLength": 133056,
      "target": 34962
    },
    {
      "buffer": 1,
      "byteLength": 262416,
      "target": 34963
    },
    {
      "buffer": 2,
      "byteLength": 133056,
      "target": 34962
    }
  ],
  "materials": [
    {
      "extensions": {
        "KHR_materials_transmission": {},
        "KHR_materials_clearcoat": {},
        "KHR_materials_ior": {
          "ior": 1.0
        },
        "KHR_materials_specular": {
          "specularFactor": 0.5,
          "specularColorFactor": [
            1.0,
            1.0,
            1.0
          ]
        }
      },
      "pbrMetallicRoughness": {
        "baseColorFactor": [
          0.95736957,
          0.95736957,
          0.95736957,
          1.0
        ],
        "metallicFactor": 0.0
      }
    }
  ],
  "meshes": [
    {
      "primitives": [
        {
          "attributes": {
            "POSITION": 0,
            "NORMAL": 2
          },
          "indices": 1,
          "material": 0
        }
      ]
    }
  ],
  "nodes": [
    {
      "mesh": 0
    },
    {
      "children": [
        0
      ],
      "name": "def"
    },
    {
      "children": [
        1
      ],
      "name": "Beyaz iki inana"
    }
  ],
  "samplers": [
    {
      "magFilter": 9729,
      "minFilter": 9729
    }
  ],
  "scene": 0,
  "scenes": [
    {
      "nodes": [
        2
      ],
      "extensions": {}
    }
  ],
  "extensions": {}
}